<svg xmlns="http://www.w3.org/2000/svg" viewBox="0 0 500 500"><style>
@keyframes a0_v { 0% { visibility: visible; animation-timing-function: steps(1); } 2.2% { visibility: hidden; animation-timing-function: steps(1); } 100% { visibility: hidden; animation-timing-function: steps(1); } }
@keyframes a1_v { 0% { visibility: hidden; animation-timing-function: steps(1); } 2.2% { visibility: visible; animation-timing-function: steps(1); } 4.42% { visibility: hidden; animation-timing-function: steps(1); } 100% { visibility: hidden; animation-timing-function: steps(1); } }
@keyframes a2_v { 0% { visibility: hidden; animation-timing-function: steps(1); } 4.42% { visibility: visible; animation-timing-function: steps(1); } 6.64% { visibility: hidden; animation-timing-function: steps(1); } 100% { visibility: hidden; animation-timing-function: steps(1); } }
@keyframes a3_v { 0% { visibility: hidden; animation-timing-function: steps(1); } 6.64% { visibility: visible; animation-timing-function: steps(1); } 8.86% { visibility: hidden; animation-timing-function: steps(1); } 100% { visibility: hidden; animation-timing-function: steps(1); } }
@keyframes a4_v { 0% { visibility: hidden; animation-timing-function: steps(1); } 8.86% { visibility: visible; animation-timing-function: steps(1); } 11.1% { visibility: hidden; animation-timing-function: steps(1); } 100% { visibility: hidden; animation-timing-function: steps(1); } }
@keyframes a5_v { 0% { visibility: hidden; animation-timing-function: steps(1); } 11.1% { visibility: visible; animation-timing-function: steps(1); } 13.32% { visibility: hidden; animation-timing-function: steps(1); } 100% { visibility: hidden; animation-timing-function: steps(1); } }
@keyframes a6_v { 0% { visibility: hidden; animation-timing-function: steps(1); } 13.32% { visibility: visible; animation-timing-function: steps(1); } 15.54% { visibility: hidden; animation-timing-function: steps(1); } 100% { visibility: hidden; animation-timing-function: steps(1); } }
@keyframes a7_v { 0% { visibility: hidden; animation-timing-function: steps(1); } 15.54% { visibility: visible; animation-timing-function: steps(1); } 17.76% { visibility: hidden; animation-timing-function: steps(1); } 100% { visibility: hidden; animation-timing-function: steps(1); } }
@keyframes a8_v { 0% { visibility: hidden; animation-timing-function: steps(1); } 17.76% { visibility: visible; animation-timing-function: steps(1); } 20% { visibility: hidden; animation-timing-function: steps(1); } 100% { visibility: hidden; animation-timing-function: steps(1); } }
@keyframes a9_v { 0% { visibility: hidden; animation-timing-function: steps(1); } 20% { visibility: visible; animation-timing-function: steps(1); } 22.56% { visibility: hidden; animation-timing-function: steps(1); } 100% { visibility: hidden; animation-timing-function: steps(1); } }
@keyframes a10_v { 0% { visibility: hidden; animation-timing-function: steps(1); } 22.56% { visibility: visible; animation-timing-function: steps(1); } 25.12% { visibility: hidden; animation-timing-function: steps(1); } 100% { visibility: hidden; animation-timing-function: steps(1); } }
@keyframes a11_v { 0% { visibility: hidden; animation-timing-function: steps(1); } 25.12% { visibility: visible; animation-timing-function: steps(1); } 27.7% { visibility: hidden; animation-timing-function: steps(1); } 100% { visibility: hidden; animation-timing-function: steps(1); } }
@keyframes a12_v { 0% { visibility: hidden; animation-timing-function: steps(1); } 27.7% { visibility: visible; animation-timing-function: steps(1); } 30.26% { visibility: hidden; animation-timing-function: steps(1); } 100% { visibility: hidden; animation-timing-function: steps(1); } }
@keyframes a13_v { 0% { visibility: hidden; animation-timing-function: steps(1); } 30.26% { visibility: visible; animation-timing-function: steps(1); } 32.86% { visibility: hidden; animation-timing-function: steps(1); } 100% { visibility: hidden; animation-timing-function: steps(1); } }
@keyframes a14_v { 0% { visibility: hidden; animation-timing-function: steps(1); } 32.86% { visibility: visible; animation-timing-function: steps(1); } 35.42% { visibility: hidden; animation-timing-function: steps(1); } 100% { visibility: hidden; animation-timing-function: steps(1); } }
@keyframes a15_v { 0% { visibility: hidden; animation-timing-function: steps(1); } 35.42% { visibility: visible; animation-timing-function: steps(1); } 38% { visibility: hidden; animation-timing-function: steps(1); } 100% { visibility: hidden; animation-timing-function: steps(1); } }
@keyframes a16_v { 0% { visibility: hidden; animation-timing-function: steps(1); } 38% { visibility: visible; animation-timing-function: steps(1); } 100% { visibility: hidden; animation-timing-function: steps(1); } }
@keyframes a17_d { 0% { d: path('M298.3,338.1C343.5,280.9,393.9,95,358.9,121.9C323.9,148.8,291.1,234.5,291.1,234.5C291.1,234.5,282.9,200,250.9,263.6C204.4,356.1,179.6,488.1,298.3,338.1Z'); } 38% { d: path('M298.3,338.1C343.5,280.9,393.9,95,358.9,121.9C323.9,148.8,291.1,234.5,291.1,234.5C291.1,234.5,282.9,200,250.9,263.6C204.4,356.1,179.6,488.1,298.3,338.1Z'); animation-timing-function: cubic-bezier(0,0,.6,1); } 42% { d: path('M298.3,338.1C343.5,280.9,393.9,95,358.9,121.9C323.9,148.8,291.1,234.5,291.1,234.5C291.1,234.5,282.9,200,250.9,263.6C204.4,356.1,179.6,488.1,298.3,338.1Z'); animation-timing-function: cubic-bezier(0,0,.6,1); } 53.4% { d: path('M298.3,338.1C358.9,262.6,399,97.1,364,124C329,150.9,291.1,234.5,291.1,234.5C291.1,234.5,282,199,250,262.6C206.5,358.5,180,475,298.3,338.1Z'); animation-timing-function: cubic-bezier(0,0,.6,1); } 67.58% { d: path('M298.3,338.1C343.5,280.9,393.9,95,358.9,121.9C323.9,148.8,291.1,234.5,291.1,234.5C291.1,234.5,282.9,200,250.9,263.6C204.4,356.1,179.6,488.1,298.3,338.1Z'); animation-timing-function: cubic-bezier(0,0,.6,1); } 83.78% { d: path('M298.3,338.1C358.9,262.6,399,97.1,364,124C329,150.9,291.1,234.5,291.1,234.5C291.1,234.5,282,199,250,262.6C206.5,358.5,180,475,298.3,338.1Z'); animation-timing-function: cubic-bezier(0,0,.6,1); } 100% { d: path('M298.3,338.1C343.5,280.9,393.9,95,358.9,121.9C323.9,148.8,291.1,234.5,291.1,234.5C291.1,234.5,282.9,200,250.9,263.6C204.4,356.1,179.6,488.1,298.3,338.1Z'); } }
@keyframes a18_d { 0% { d: path('M294.5,226C271.5,118.6,243.7,82.2,225.3,97.2C204.6,114.1,189.4,243.5,189.4,243.5C189.4,243.5,142,205.7,135.7,240.1C116.8,341.5,140.1,411.7,212.5,372.4'); } 38% { d: path('M294.5,226C271.5,118.6,243.7,82.2,225.3,97.2C204.6,114.1,189.4,243.5,189.4,243.5C189.4,243.5,142,205.7,135.7,240.1C116.8,341.5,140.1,411.7,212.5,372.4'); animation-timing-function: cubic-bezier(0,0,.6,1); } 42% { d: path('M294.5,226C271.5,118.6,243.7,82.2,225.3,97.2C204.6,114.1,189.4,243.5,189.4,243.5C189.4,243.5,142,205.7,135.7,240.1C116.8,341.5,140.1,411.7,212.5,372.4'); animation-timing-function: cubic-bezier(0,0,.6,1); } 53.4% { d: path('M294.5,226C271.5,118.6,251.4,76,233,91C202,110,188.4,246.5,188.4,246.5C188.4,246.5,136.3,204.3,130,238.7C118,333.5,139.6,408.3,212,369'); animation-timing-function: cubic-bezier(0,0,.6,1); } 67.58% { d: path('M294.5,226C271.5,118.6,243.7,82.2,225.3,97.2C204.6,114.1,189.4,243.5,189.4,243.5C189.4,243.5,142,205.7,135.7,240.1C116.8,341.5,140.1,411.7,212.5,372.4'); animation-timing-function: cubic-bezier(0,0,.6,1); } 83.78% { d: path('M294.5,226C271.5,118.6,251.4,76,233,91C202,110,188.4,246.5,188.4,246.5C188.4,246.5,136.3,204.3,130,238.7C118,333.5,139.6,408.3,212,369'); animation-timing-function: cubic-bezier(0,0,.6,1); } 100% { d: path('M294.5,226C271.5,118.6,243.7,82.2,225.3,97.2C204.6,114.1,189.4,243.5,189.4,243.5C189.4,243.5,142,205.7,135.7,240.1C116.8,341.5,140.1,411.7,212.5,372.4'); } }
@keyframes a19_d { 0% { d: path('M285.7,353.6C280,361.6,279.2,367.4,288,369.7C298.1,372.3,321.5,358,337.3,335.2C353.1,312.3,349.5,296.9,340.9,291C332.3,285.1,302.2,332.6,301,334.3'); } 38% { d: path('M285.7,353.6C280,361.6,279.2,367.4,288,369.7C298.1,372.3,321.5,358,337.3,335.2C353.1,312.3,349.5,296.9,340.9,291C332.3,285.1,302.2,332.6,301,334.3'); animation-timing-function: cubic-bezier(0,0,.6,1); } 42% { d: path('M285.7,353.6C280,361.6,279.2,367.4,288,369.7C298.1,372.3,321.5,358,337.3,335.2C353.1,312.3,349.5,296.9,340.9,291C332.3,285.1,302.2,332.6,301,334.3'); animation-timing-function: cubic-bezier(0,0,.6,1); } 53.4% { d: path('M285.7,353.6C280,361.6,282.2,366.4,291,368.7C301.1,371.3,323.5,355,339.3,332.2C355.1,309.3,352,298,340.9,291C329,285.5,302.2,332.6,301,334.3'); animation-timing-function: cubic-bezier(0,0,.6,1); } 67.58% { d: path('M285.7,353.6C280,361.6,279.2,367.4,288,369.7C298.1,372.3,321.5,358,337.3,335.2C353.1,312.3,349.5,296.9,340.9,291C332.3,285.1,302.2,332.6,301,334.3'); animation-timing-function: cubic-bezier(0,0,.6,1); } 83.78% { d: path('M285.7,353.6C280,361.6,282.2,366.4,291,368.7C301.1,371.3,323.5,355,339.3,332.2C355.1,309.3,352,298,340.9,291C329,285.5,302.2,332.6,301,334.3'); animation-timing-function: cubic-bezier(0,0,.6,1); } 100% { d: path('M285.7,353.6C280,361.6,279.2,367.4,288,369.7C298.1,372.3,321.5,358,337.3,335.2C353.1,312.3,349.5,296.9,340.9,291C332.3,285.1,302.2,332.6,301,334.3'); } }
</style><g><g visibility="visible" style="animation: 5s linear infinite forwards a0_v;"><path class="st3" d="M284.2 354.5c76.2-54.5 77.2-262.9 23.2-232.1c-54 30.8-62.6 129.8-62.6 129.8c0 0-40.5-20.3-60.5 7.9c-57.9 82-43.9 197.2 99.9 94.4Z" stroke-width="20" stroke="#006D42" stroke-miterlimit="10" fill="none"/><path class="st3" d="M276.8 152.7c-14-36.4-41.1-62-55.4-39.2c-17 27.2-14.6 94.6-14.6 94.6c0 0-51.4-31.7-70 24.5c-18.6 56.2-3.8 111.8 16.7 127.7" stroke-width="20" stroke="#006D42" stroke-miterlimit="10" fill="none"/><path class="st3" d="M283.1 355.3c-4.2 5.7-4.9 12.2-2.8 14.3c7 6.9 31.9-1 52.5-21.8c20.6-20.8 29.2-46.7 22-53.4c-9-8.3-46.4 35.2-47.9 36.8" stroke-width="20" stroke="#006D42" stroke-miterlimit="10" fill="none"/></g><g visibility="hidden" style="animation: 5s linear infinite forwards a1_v;"><path class="st3" d="M291.5 364c56.5-59.1 68.1-296.3 28.1-263c-40 33.3-57.3 152.1-57.3 152.1c0 0-30-22-44.8 8.5c-43 89-32.7 213.9 74 102.4Z" stroke-width="20" stroke="#006D42" stroke-miterlimit="10" fill="none"/><path class="st3" d="M280.2 174.9c-22.9-61.7-76.4-99.9-86.5-75.4c-12 29.2 0 98.6 0 98.6c0 0-29-28.6-39 33.8c-10 62.4 2.5 176.2 39 139.2" stroke-width="20" stroke="#006D42" stroke-miterlimit="10" fill="none"/><path class="st3" d="M294.7 360.4c-1.1 3.6-7.9 16.7-1 17c8 .4 31.5-17.1 45.1-41.3c13.6-24.2 10.8-42.7 4.2-46.5c-6.6-3.7-32.7 46.1-33.8 47.9" stroke-width="20" stroke="#006D42" stroke-miterlimit="10" fill="none"/></g><g visibility="hidden" style="animation: 5s linear infinite forwards a2_v;"><path class="st3" d="M283.7 372.9c54.7-54.6 93.3-290.6 56-260.9c-37.3 29.7-60.5 141.2-60.5 141.2c0 0-26.2 2.4-43.1 32.5c-49 87.4-55.6 190.1 47.6 87.2Z" stroke-width="20" stroke="#006D42" stroke-miterlimit="10" fill="none"/><path class="st3" d="M291.7 205.5c-34.9-122.2-93.5-136.1-102.2-111c-10.3 29.9 17.2 123.7 17.2 123.7c0 0-54-39.8-58.9 23.2c-11.6 150.6 20.3 176.5 54.5 137.4" stroke-width="20" stroke="#006D42" stroke-miterlimit="10" fill="none"/><path class="st3" d="M296 357.3c-0.5 3.8-4 8.4 5.1 9.1c10.4 .8 32.3-25.3 43.7-50.6c11.5-25.3 7.3-36.7-2.1-41c-9.4-4.3-16.5 17.7-17.4 19.6" stroke-width="20" stroke="#006D42" stroke-miterlimit="10" fill="none"/></g><g visibility="hidden" style="animation: 5s linear infinite forwards a3_v;"><path class="st3" d="M301.3 349.9c54.7-54.6 98.9-265.3 61.6-235.5c-37.3 29.8-75.6 158.7-75.6 158.7c0 0-18.1 4.8-34.9 34.9c-49 87.5-54.3 144.9 48.9 41.9Z" stroke-width="20" stroke="#006D42" stroke-miterlimit="10" fill="none"/><path class="st3" d="M312.2 202.2c-19.5-42.5-77.2-119.9-99.4-105.4c-22.4 14.6-7.5 140.7-7.5 140.7c0 0-68.7-20.3-75.5 14c-11.1 56.5-22.2 135.5 93.2 119.9" stroke-width="20" stroke="#006D42" stroke-miterlimit="10" fill="none"/></g><g visibility="hidden" style="animation: 5s linear infinite forwards a4_v;"><path class="st3" d="M243.4 350.7c30.8-60.4 170.2-241.3 154.4-206c-15.8 35.3-99.8 149.5-99.8 149.5c0 0-1.1 9.5-19.7 38.6c-54.1 84.8-92.9 131.9-34.9 17.9Z" stroke-width="20" stroke="#006D42" stroke-miterlimit="10" fill="none"/><path class="st3" d="M276.8 266.4c0-140.9-64.8-196.9-87-182.4c-22.4 14.6-7.5 140.7-7.5 140.7c0 0-69.5-20.5-75.5 14c-21.6 124.1 14.2 159.5 137.8 81.1" stroke-width="20" stroke="#006D42" stroke-miterlimit="10" fill="none"/><path class="st3" d="M294.5 271.3c.6-6.3-0.8-10.6-3.5-12.3c-5.7-3.4-20.7 12.8-30.4 26.9c-9.6 14.1-21.7 43.1-16.7 47c1.9 1.5 6.3-0.1 11.7-3.8" stroke-width="20" stroke="#006D42" stroke-miterlimit="10" fill="none"/></g><g visibility="hidden" transform="translate(41.3,26)" style="animation: 5s linear infinite forwards a5_v;"><path class="st3" d="M222.2 218.6c0-126.4-69.7-158.5-89.7-145.5c-20.1 13.1 5.5 129 5.5 129c0 0-64.6-18.7-67.7 12.5c-11.4 114.8 11 144.7 121.8 74.4" stroke-width="20" stroke="#006D42" stroke-miterlimit="10" fill="none"/><path class="st3" d="M251.4 214.9c147.1-174.4 148-106.7 146.3-75.9c-3 55.2-80.5 132-80.5 132c0 0 32.5 29.3 8.1 58c-87.8 103.6-106.9 91-106.9-27.1" stroke-width="20" stroke="#006D42" stroke-miterlimit="10" fill="none"/><path class="st3" d="M196.7 303.8c19.2 10.7 27.1-6.8 41.8-34.5c18.1-34.1 19.1-56.4 5.2-61.8c-21.7-8.4-66.2 85.6-47 96.3Z" stroke-width="20" stroke="#006D42" stroke-miterlimit="10" fill="none"/></g><g visibility="hidden" style="animation: 5s linear infinite forwards a6_v;"><path class="st3" d="M301.3 349.9c54.7-54.6 98.9-265.3 61.6-235.5c-37.3 29.8-75.6 158.7-75.6 158.7c0 0-18.1 4.8-34.9 34.9c-49 87.5-54.3 144.9 48.9 41.9Z" stroke-width="20" stroke="#006D42" stroke-miterlimit="10" fill="none"/><path class="st3" d="M312.2 202.2c-19.5-42.5-77.2-119.9-99.4-105.4c-22.4 14.6-7.5 140.7-7.5 140.7c0 0-68.7-20.3-75.5 14c-11.1 56.5-22.2 135.5 93.2 119.9" stroke-width="20" stroke="#006D42" stroke-miterlimit="10" fill="none"/></g><g visibility="hidden" style="animation: 5s linear infinite forwards a7_v;"><path class="st3" d="M298.3 338.1c45.2-57.2 95.6-243.1 60.6-216.2c-35 26.9-67.8 112.6-67.8 112.6c0 0-8.2-34.5-40.2 29.1c-46.5 92.5-71.3 224.5 47.4 74.5Z" stroke-width="20" stroke="#006D42" stroke-miterlimit="10" fill="none"/><path class="st3" d="M294.5 226c-23-107.4-50.8-143.8-69.2-128.8c-20.7 16.9-35.9 146.3-35.9 146.3c0 0-47.4-37.8-53.7-3.4c-18.9 101.4 4.4 171.6 76.8 132.3" stroke-width="20" stroke="#006D42" stroke-miterlimit="10" fill="none"/><path class="st3" d="M285.7 353.6c-5.7 8-6.5 13.8 2.3 16.1c10.1 2.6 33.5-11.7 49.3-34.5c15.8-22.9 12.2-38.3 3.6-44.2c-8.6-5.9-38.7 41.6-39.9 43.3" stroke-width="20" stroke="#006D42" stroke-miterlimit="10" fill="none"/></g><g visibility="hidden" style="animation: 5s linear infinite forwards a8_v;"><path class="st3" d="M252.9 384c52-46.1 68-62.9 74.8-100.8c13.2-73.5 4.3-182.8-18.6-164.8c-38.2 30-51.2 116.5-51.2 116.5c0 0-44.2-24.7-51.7 8.2c-27.3 118.1-1 183.3 46.7 140.9Z" stroke-width="20" stroke="#006D42" stroke-miterlimit="10" fill="none"/><path class="st3" d="M273.4 177.3c-4.2-33-11.7-78.1-29.7-74c-26.4 6.1-54.7 128.6-54.7 128.6c0 0-36.6-28.2-40 4.1c-6.9 66.7 21.7 164.5 52.5 138.2" stroke-width="20" stroke="#006D42" stroke-miterlimit="10" fill="none"/><path class="st3" d="M284.4 355.2c-7.6 13.7 3 18.5 6.5 19c9.7 1.2 34.9-19.3 50.4-45.2c15.5-25.9 12-44.4 3.4-48.6c-7.7-3.8-13 .8-17.6 8.3" stroke-width="20" stroke="#006D42" stroke-miterlimit="10" fill="none"/></g></g><g><g visibility="hidden" style="animation: 5s linear infinite forwards a9_v;"><path class="st3" d="M284.2 354.5c76.2-54.5 77.2-262.9 23.2-232.1c-54 30.8-62.6 129.8-62.6 129.8c0 0-40.5-20.3-60.5 7.9c-57.9 82-43.9 197.2 99.9 94.4Z" stroke-width="20" stroke="#006D42" stroke-miterlimit="10" fill="none"/><path class="st3" d="M276.8 152.7c-14-36.4-41.1-62-55.4-39.2c-17 27.2-14.6 94.6-14.6 94.6c0 0-51.4-31.7-70 24.5c-18.6 56.2-3.8 111.8 16.7 127.7" stroke-width="20" stroke="#006D42" stroke-miterlimit="10" fill="none"/><path class="st3" d="M283.1 355.3c-4.2 5.7-4.9 12.2-2.8 14.3c7 6.9 31.9-1 52.5-21.8c20.6-20.8 29.2-46.7 22-53.4c-9-8.3-46.4 35.2-47.9 36.8" stroke-width="20" stroke="#006D42" stroke-miterlimit="10" fill="none"/></g><g visibility="hidden" style="animation: 5s linear infinite forwards a10_v;"><path class="st3" d="M291.5 364c56.5-59.1 68.1-296.3 28.1-263c-40 33.3-57.3 152.1-57.3 152.1c0 0-30-22-44.8 8.5c-43 89-32.7 213.9 74 102.4Z" stroke-width="20" stroke="#006D42" stroke-miterlimit="10" fill="none"/><path class="st3" d="M280.2 174.9c-22.9-61.7-76.4-99.9-86.5-75.4c-12 29.2 0 98.6 0 98.6c0 0-29-28.6-39 33.8c-10 62.4 2.5 176.2 39 139.2" stroke-width="20" stroke="#006D42" stroke-miterlimit="10" fill="none"/><path class="st3" d="M294.7 360.4c-1.1 3.6-7.9 16.7-1 17c8 .4 31.5-17.1 45.1-41.3c13.6-24.2 10.8-42.7 4.2-46.5c-6.6-3.7-32.7 46.1-33.8 47.9" stroke-width="20" stroke="#006D42" stroke-miterlimit="10" fill="none"/></g><g visibility="hidden" style="animation: 5s linear infinite forwards a11_v;"><path class="st3" d="M283.7 372.9c54.7-54.6 93.3-290.6 56-260.9c-37.3 29.7-60.5 141.2-60.5 141.2c0 0-26.2 2.4-43.1 32.5c-49 87.4-55.6 190.1 47.6 87.2Z" stroke-width="20" stroke="#006D42" stroke-miterlimit="10" fill="none"/><path class="st3" d="M291.7 205.5c-34.9-122.2-93.5-136.1-102.2-111c-10.3 29.9 17.2 123.7 17.2 123.7c0 0-54-39.8-58.9 23.2c-11.6 150.6 20.3 176.5 54.5 137.4" stroke-width="20" stroke="#006D42" stroke-miterlimit="10" fill="none"/><path class="st3" d="M296 357.3c-0.5 3.8-4 8.4 5.1 9.1c10.4 .8 32.3-25.3 43.7-50.6c11.5-25.3 7.3-36.7-2.1-41c-9.4-4.3-16.5 17.7-17.4 19.6" stroke-width="20" stroke="#006D42" stroke-miterlimit="10" fill="none"/></g><g visibility="hidden" style="animation: 5s linear infinite forwards a12_v;"><path class="st3" d="M301.3 349.9c54.7-54.6 98.9-265.3 61.6-235.5c-37.3 29.8-75.6 158.7-75.6 158.7c0 0-18.1 4.8-34.9 34.9c-49 87.5-54.3 144.9 48.9 41.9Z" stroke-width="20" stroke="#006D42" stroke-miterlimit="10" fill="none"/><path class="st3" d="M312.2 202.2c-19.5-42.5-77.2-119.9-99.4-105.4c-22.4 14.6-7.5 140.7-7.5 140.7c0 0-68.7-20.3-75.5 14c-11.1 56.5-22.2 135.5 93.2 119.9" stroke-width="20" stroke="#006D42" stroke-miterlimit="10" fill="none"/></g><g visibility="hidden" style="animation: 5s linear infinite forwards a13_v;"><path class="st3" d="M243.4 350.7c30.8-60.4 170.2-241.3 154.4-206c-15.8 35.3-99.8 149.5-99.8 149.5c0 0-1.1 9.5-19.7 38.6c-54.1 84.8-92.9 131.9-34.9 17.9Z" stroke-width="20" stroke="#006D42" stroke-miterlimit="10" fill="none"/><path class="st3" d="M276.8 266.4c0-140.9-64.8-196.9-87-182.4c-22.4 14.6-7.5 140.7-7.5 140.7c0 0-69.5-20.5-75.5 14c-21.6 124.1 14.2 159.5 137.8 81.1" stroke-width="20" stroke="#006D42" stroke-miterlimit="10" fill="none"/><path class="st3" d="M294.5 271.3c.6-6.3-0.8-10.6-3.5-12.3c-5.7-3.4-20.7 12.8-30.4 26.9c-9.6 14.1-21.7 43.1-16.7 47c1.9 1.5 6.3-0.1 11.7-3.8" stroke-width="20" stroke="#006D42" stroke-miterlimit="10" fill="none"/></g><g visibility="hidden" transform="translate(34,14)" style="animation: 5s linear infinite forwards a14_v;"><path class="st3" d="M222.2 218.6c0-126.4-69.7-158.5-89.7-145.5c-20.1 13.1 5.5 129 5.5 129c0 0-64.6-18.7-67.7 12.5c-11.4 114.8 11 144.7 121.8 74.4" stroke-width="20" stroke="#006D42" stroke-miterlimit="10" fill="none"/><path class="st3" d="M251.4 214.9c147.1-174.4 154.3-115.7 152.6-84.9c-3 55.2-98 135.3-98 135.3c0 0 49.4 30 25 58.7c-87.8 103.6-88 101-112.6-22.1" stroke-width="20" stroke="#006D42" stroke-miterlimit="10" fill="none"/><path class="st3" d="M196.7 303.8c19.2 10.7 27.1-6.8 41.8-34.5c18.1-34.1 19.1-56.4 5.2-61.8c-21.7-8.4-66.2 85.6-47 96.3Z" stroke-width="20" stroke="#006D42" stroke-miterlimit="10" fill="none"/></g><g visibility="hidden" style="animation: 5s linear infinite forwards a15_v;"><path class="st3" d="M301.3 349.9c54.7-54.6 98.9-265.3 61.6-235.5c-37.3 29.8-75.6 158.7-75.6 158.7c0 0-18.1 4.8-34.9 34.9c-49 87.5-54.3 144.9 48.9 41.9Z" stroke-width="20" stroke="#006D42" stroke-miterlimit="10" fill="none"/><path class="st3" d="M312.2 202.2c-19.5-42.5-77.2-119.9-99.4-105.4c-22.4 14.6-7.5 140.7-7.5 140.7c0 0-68.7-20.3-75.5 14c-11.1 56.5-22.2 135.5 93.2 119.9" stroke-width="20" stroke="#006D42" stroke-miterlimit="10" fill="none"/></g><g visibility="hidden" style="animation: 5s linear infinite forwards a16_v;"><path class="st3" d="M298.3 338.1c45.2-57.2 95.6-243.1 60.6-216.2c-35 26.9-67.8 112.6-67.8 112.6c0 0-8.2-34.5-40.2 29.1c-46.5 92.5-71.3 224.5 47.4 74.5Z" stroke-width="20" stroke="#006D42" stroke-miterlimit="10" fill="none" style="animation: 5s linear infinite both a17_d;"/><path class="st3" d="M294.5 226c-23-107.4-50.8-143.8-69.2-128.8c-20.7 16.9-35.9 146.3-35.9 146.3c0 0-47.4-37.8-53.7-3.4c-18.9 101.4 4.4 171.6 76.8 132.3" stroke-width="20" stroke="#006D42" stroke-miterlimit="10" fill="none" style="animation: 5s linear infinite both a18_d;"/><path class="st3" d="M285.7 353.6c-5.7 8-6.5 13.8 2.3 16.1c10.1 2.6 33.5-11.7 49.3-34.5c15.8-22.9 12.2-38.3 3.6-44.2c-8.6-5.9-38.7 41.6-39.9 43.3" stroke-width="20" stroke="#006D42" stroke-miterlimit="10" fill="none" style="animation: 5s linear infinite both a19_d;"/></g></g></svg>
