<svg xmlns="http://www.w3.org/2000/svg" width="36" height="20"><defs><style>.cls-1{fill:#fff}.cls-3{fill:#016fd0}</style></defs><g id="AMEX_Light" data-name="AMEX Light"><rect width="34" height="18" x="1" y="1" class="cls-1" rx="2.32"/><path id="Stroke" fill="#111" d="M32.68 1A2.32 2.32 0 0 1 35 3.32v13.36A2.32 2.32 0 0 1 32.68 19H3.32A2.32 2.32 0 0 1 1 16.68V3.32A2.32 2.32 0 0 1 3.32 1h29.36m0-1H3.32A3.32 3.32 0 0 0 0 3.32v13.36A3.32 3.32 0 0 0 3.32 20h29.36A3.32 3.32 0 0 0 36 16.68V3.32A3.32 3.32 0 0 0 32.68 0Z" opacity=".12"/><g id="layer1"><path id="path3078" d="M12 4h12v6.47l-.59.92.59.83V16H12V9.89l.37-.42-.37-.41Z" class="cls-3"/><path id="path3082" d="M14.32 12.36v-1.88h2l.22.28.22-.28H24v1.75a1 1 0 0 1-.41.13h-4l-.24-.3v.3h-.79v-.51a.63.63 0 0 1-.34.07h-.27v.44h-1.22l-.21-.29-.22.29Z" class="cls-1"/><path id="path3080" d="M12 9.06 12.45 8h.77l.26.59V8h1l.16.43.1-.43h4.33v.22a.92.92 0 0 1 .6-.22h1.41l.25.58V8h.81l.22.34V8h.81v1.89h-.81l-.21-.33v.33H21l-.12-.29h-.32l-.12.29h-.8a.81.81 0 0 1-.53-.21v.21h-1.25l-.24-.29v.29h-4.51L13 9.6h-.32l-.12.29H12Z" class="cls-1"/><path id="path3046" d="M12.61 8.25 12 9.65h.4l.11-.28h.65l.11.28h.4l-.6-1.4Zm.22.32.2.5h-.4Z" class="cls-3"/><path id="path3048" d="M13.71 9.65v-1.4h.56l.33.91.32-.91h.55v1.4h-.35v-1l-.37 1h-.31l-.38-1v1Z" class="cls-3"/><path id="path3050" d="M15.71 9.65v-1.4h1.15v.31h-.79v.24h.77v.3h-.77v.25h.79v.3Z" class="cls-3"/><path id="path3052" d="M17.06 8.25v1.4h.36v-.5h.14l.43.5h.43L18 9.13a.42.42 0 0 0 .39-.43.45.45 0 0 0-.49-.45Zm.36.31h.4a.15.15 0 1 1 0 .3h-.4v-.3Z" class="cls-3"/><path id="path3054" d="M18.84 9.65h-.36v-1.4h.36Z" class="cls-3"/><path id="path3056" d="M19.69 9.65h-.07A.62.62 0 0 1 19 9a.64.64 0 0 1 .7-.71h.39v.33h-.4a.34.34 0 0 0-.33.38.35.35 0 0 0 .38.39h.09Z" class="cls-3"/><path id="path3058" d="m20.46 8.25-.61 1.4h.4l.11-.28H21l.11.28h.4l-.6-1.4Zm.22.32.2.5h-.4l.2-.5Z" class="cls-3"/><path id="path3060" d="M21.56 9.65v-1.4H22l.57.88v-.88h.35v1.4h-.42l-.59-.9v.9Z" class="cls-3"/><path id="path3062" d="M14.56 12.12v-1.41h1.15V11h-.79v.24h.77v.3h-.77v.25h.79v.31Z" class="cls-3"/><path id="path3064" d="M20.19 12.12v-1.41h1.15V11h-.8v.24h.78v.3h-.78v.25h.8v.31Z" class="cls-3"/><path id="path3066" d="m15.76 12.12.56-.7-.58-.71h.45l.34.44.34-.44h.43l-.57.7.56.71h-.44l-.33-.44-.33.44Z" class="cls-3"/><path id="path3068" d="M17.33 10.71v1.41h.36v-.45h.37c.32 0 .55-.16.55-.49a.45.45 0 0 0-.5-.47Zm.36.32h.39a.16.16 0 1 1 0 .32h-.39V11Z" class="cls-3"/><path id="path3072" d="M18.77 10.71v1.41h.35v-.5h.15l.42.5h.43l-.46-.52a.43.43 0 0 0 .38-.44.45.45 0 0 0-.49-.45Zm.35.31h.4a.17.17 0 0 1 .17.15.16.16 0 0 1-.16.15h-.41Z" class="cls-3"/><path id="path3074" d="M21.5 12.12v-.31h.7c.11 0 .15-.06.15-.12s0-.12-.15-.12h-.31a.39.39 0 0 1-.43-.42c0-.22.14-.44.55-.44h.68l-.15.31H22c-.11 0-.15.06-.15.12a.12.12 0 0 0 .13.12h.34a.39.39 0 0 1 .44.41.43.43 0 0 1-.46.45Z" class="cls-3"/><path id="path3076" d="M22.79 12.12v-.31h.71c.1 0 .14-.06.14-.12s0-.12-.14-.12h-.32a.39.39 0 0 1-.43-.42c0-.22.14-.44.55-.44h.7l-.14.31h-.6c-.11 0-.14.06-.14.12a.12.12 0 0 0 .12.12h.34a.39.39 0 0 1 .44.41.43.43 0 0 1-.46.45Z" class="cls-3"/></g></g></svg>
