<svg xmlns="http://www.w3.org/2000/svg" width="36" height="20"><defs><style>.cls-3{fill:#8bbd06}</style></defs><g id="oney_Light" data-name="oney Light"><rect width="34" height="18" x="1" y="1" fill="#fff" rx="2.32"/><path id="Stroke" fill="#111" d="M32.68 1A2.32 2.32 0 0 1 35 3.32v13.36A2.32 2.32 0 0 1 32.68 19H3.32A2.32 2.32 0 0 1 1 16.68V3.32A2.32 2.32 0 0 1 3.32 1h29.36m0-1H3.32A3.32 3.32 0 0 0 0 3.32v13.36A3.32 3.32 0 0 0 3.32 20h29.36A3.32 3.32 0 0 0 36 16.68V3.32A3.32 3.32 0 0 0 32.68 0Z" opacity=".12"/><g id="g10"><path id="path160" d="M8.64 11.16a2.05 2.05 0 1 1 2-2.05 2 2 0 0 1-2 2.05m0-5.16a3.11 3.11 0 1 0 3.1 3.11A3.07 3.07 0 0 0 8.64 6" class="cls-3"/><path id="path7397" d="M24.61 9a3 3 0 1 0-6 .07 3.15 3.15 0 0 0 .87 2.18 2.94 2.94 0 0 0 2.13.93 3.14 3.14 0 0 0 2.82-1.69h-1.25a2.1 2.1 0 0 1-1.55.66 2 2 0 0 1-1.91-1.61h4.87v-.51m-4.85-.48a1.87 1.87 0 0 1 3.67 0Z" class="cls-3"/><path id="path7399" d="M15.17 7c-1.1 0-1.65.59-1.65 1.75v3.43h-1.13V8.7a2.74 2.74 0 0 1 .37-1.47A2.75 2.75 0 0 1 15.17 6a2.71 2.71 0 0 1 2.4 1.23 2.65 2.65 0 0 1 .37 1.47v3.51h-1.12V8.78c0-1.16-.55-1.75-1.65-1.75" class="cls-3"/><path id="path7401" d="m30.46 6-2.37 5.78-.59 1.43-.32.79H26l.91-2.22L24.49 6h1.24l1.77 4.35L29.28 6Z" class="cls-3"/></g></g></svg>
